<svg width="44" height="44" viewBox="0 0 44 44" fill="none" xmlns="http://www.w3.org/2000/svg">
<path d="M30 28L14 28V26L30 26V28Z" fill="white"/>
<path d="M14 22L30 22V20L14 20V22Z" fill="white"/>
<path d="M30.0607 15.4748L29.0001 14.4142L30.4143 13L31.4749 14.0606L32.5355 13L33.9497 14.4142L32.8892 15.4748L33.9499 16.5355L32.5356 17.9497L31.4749 16.889L30.4142 17.9497L29 16.5355L30.0607 15.4748Z" fill="white"/>
<path d="M9 9C7.34315 9 6 10.3431 6 12V32C6 33.6569 7.34315 35 9 35H35C36.6569 35 38 33.6569 38 32V12C38 10.3431 36.6569 9 35 9H9ZM35 11C35.5523 11 36 11.4477 36 12V32C36 32.5523 35.5523 33 35 33H9C8.44772 33 8 32.5523 8 32V12C8 11.4477 8.44772 11 9 11H35Z" fill="white"/>
</svg>
